<svg id="SvgjsSvg1001" width="288" height="288" xmlns="http://www.w3.org/2000/svg" version="1.1" xmlns:xlink="http://www.w3.org/1999/xlink" xmlns:svgjs="http://svgjs.com/svgjs"><defs id="SvgjsDefs1002"></defs><g id="SvgjsG1008"><svg xmlns="http://www.w3.org/2000/svg" version="1.2" viewBox="0 0 375 375" width="288" height="288"><defs><clipPath id="a"><rect width="132" height="115" fill="#000000" class="svgShape color000000-2 selectable"></rect></clipPath><clipPath id="b"><rect width="107" height="115" fill="#000000" class="svgShape color000000-4 selectable"></rect></clipPath><clipPath id="c"><rect width="141" height="170" fill="#000000" class="svgShape color000000-6 selectable"></rect></clipPath></defs><g clip-path="url(#a)" transform="translate(8 140)"><path fill="#fff" d="M 58.921875 -8.15625 L 58.921875 0 L 4.03125 0 L 4.03125 -6.375 L 45.3125 -57.5 L 4.6875 -57.5 L 4.6875 -65.671875 L 57.6875 -65.671875 L 57.6875 -59.296875 L 16.609375 -8.15625 Z M 58.921875 -8.15625 " transform="translate(.21 89.828)" class="svgShape colorffffff-8 selectable"></path><path fill="#fff" d="M 51.6875 -16.421875 L 16.796875 -16.421875 L 9.5625 0 L -0.09375 0 L 29.640625 -65.671875 L 38.9375 -65.671875 L 68.765625 0 L 58.921875 0 Z M 48.40625 -23.921875 L 34.234375 -56.09375 L 20.078125 -23.921875 Z M 48.40625 -23.921875 " transform="translate(61.844 89.828)" class="svgShape colorffffff-9 selectable"></path></g><g clip-path="url(#b)" transform="translate(261 140)"><path fill="#fff" d="M 22.875 -57.484375 L 0.375 -57.484375 L 0.375 -65.640625 L 54.671875 -65.640625 L 54.671875 -57.484375 L 32.15625 -57.484375 L 32.15625 0 L 22.875 0 Z M 22.875 -57.484375 " transform="translate(.865 91.07)" class="svgShape colorffffff-11 selectable"></path><path fill="#fff" d="M 51.671875 -16.40625 L 16.78125 -16.40625 L 9.5625 0 L -0.09375 0 L 29.625 -65.640625 L 38.90625 -65.640625 L 68.734375 0 L 58.890625 0 Z M 48.390625 -23.90625 L 34.21875 -56.078125 L 20.0625 -23.90625 Z M 48.390625 -23.90625 " transform="translate(37.148 91.07)" class="svgShape colorffffff-12 selectable"></path></g><path fill="none" stroke="#fff" stroke-width="12" d="M 0.00216572 5.999745 L 88.705297 5.999745 " transform="matrix(0 -.75 .75 0 140.278 231.634)" class="svgStroke colorStrokeffffff-13 selectable"></path><path fill="none" stroke="#fff" stroke-width="9" d="M 0.00199917 4.502094 L 72.585337 4.502094 " transform="rotate(180 99.51 85.97) scale(.75)" class="svgStroke colorStrokeffffff-14 selectable"></path><g clip-path="url(#c)" transform="translate(160 103)"><path fill="#fff" d="M 46.046875 -59.78125 L -1.8125 -33.25 C 1.925781 -27.550781 6.875 -24.015625 13.03125 -22.640625 C 19.195312 -21.273438 25.429688 -22.34375 31.734375 -25.84375 C 35.285156 -27.8125 38.195312 -30.253906 40.46875 -33.171875 C 42.738281 -36.085938 44.28125 -39.378906 45.09375 -43.046875 L 52.203125 -40.46875 C 51.359375 -36 49.472656 -31.910156 46.546875 -28.203125 C 43.628906 -24.503906 39.882812 -21.390625 35.3125 -18.859375 C 29.4375 -15.609375 23.539062 -13.972656 17.625 -13.953125 C 11.707031 -13.941406 6.253906 -15.441406 1.265625 -18.453125 C -3.722656 -21.472656 -7.765625 -25.78125 -10.859375 -31.375 C -13.953125 -36.957031 -15.507812 -42.632812 -15.53125 -48.40625 C -15.5625 -54.175781 -14.132812 -59.46875 -11.25 -64.28125 C -8.375 -69.09375 -4.289062 -72.96875 1 -75.90625 C 6.289062 -78.84375 11.71875 -80.242188 17.28125 -80.109375 C 22.851562 -79.972656 28.050781 -78.375 32.875 -75.3125 C 37.707031 -72.257812 41.691406 -67.90625 44.828125 -62.25 Z M 4.6875 -69.265625 C -0.820312 -66.210938 -4.46875 -61.894531 -6.25 -56.3125 C -8.039062 -50.726562 -7.625 -44.96875 -5 -39.03125 L 35.5625 -61.515625 C 31.925781 -66.890625 27.265625 -70.296875 21.578125 -71.734375 C 15.898438 -73.179688 10.269531 -72.359375 4.6875 -69.265625 Z M 4.6875 -69.265625 " transform="translate(57.79 140.54)" class="svgShape colorffffff-16 selectable"></path></g><path fill="none" stroke="#f3ffc7" stroke-width="9" d="M 0.00106923 4.49754 L 77.501074 4.49754 " transform="rotate(180 99.512 79.65) scale(.75)" class="svgStroke colorStrokedb0000-17 selectable"></path><path fill="none" stroke="#f3ffc7" stroke-width="9" d="M 0.000560222 4.501379 L 39.406853 4.49663 " transform="rotate(-145.368 109.221 52.992) scale(.75)" class="svgStroke colorStrokedb0000-18 selectable"></path><path fill="none" stroke="#f3ffc7" stroke-width="9" d="M 0.00285188 4.500192 L 39.290112 4.501967 " transform="rotate(147.19 75.964 100.056) scale(.75)" class="svgStroke colorStrokedb0000-19 selectable"></path><path fill="none" stroke="#f3ffc7" stroke-width="9" d="M 0.000611612 4.498278 L 30.052697 4.498278 " transform="rotate(90 19.974 153.36) scale(.75)" class="svgStroke colorStrokedb0000-20 selectable"></path><path fill="none" stroke="#fff" stroke-width="12" d="M 0.00216572 5.999769 L 88.705297 5.999769 " transform="matrix(0 -.75 .75 0 190.024 231.634)" class="svgStroke colorStrokeffffff-21 selectable"></path></svg></g></svg>